<?xml version="1.0" encoding="utf-8"?>
<svg id="asteria-logo" data-name="Asteria logo" xmlns="http://www.w3.org/2000/svg" viewBox="0 0 1241.09 1385.2">
  <g>
    <path d="M356.84,621.68l-66.95,47.45c-13.74,11.87-48.26,37.14-43.03,59.74,3.69,15.96,45.07,22.55,57.7,23.49,131.75,9.84,335.74-51.58,461.48-100.38,74.78-29.02,201.97-84.16,258.67-144.27,14.8-15.69,28.79-37.19,7.06-54.11-25.32-19.72-103.84-17.4-135.32-15.22-9.78.68-19.84,4.89-30.11,3.18-2.3-1.69.2-3.57,1.73-4.45,5.41-3.13,23.23-6.37,30.24-7.8,41.55-8.47,123.11-13.81,160.83,8.2,44.6,26.01-5.39,73.47-28.07,93.25-84.64,73.85-220.65,129.19-323.44,164.67-120.67,41.65-309.88,93.04-434.41,74.27-31.65-4.77-78.12-20.62-46.75-64.3,28.57-39.77,87.07-70.14,130.38-83.71Z" />
    <path d="M881.37,467.05c-2.27-1.9-.03-2.91,2.12-3.19,23.88-3.11,54.6-6.48,77.07,3.57,47.16,21.1-6.54,69.08-29.51,84.37-6.75,4.49-28.02,17.64-34.63,18.87-.83.16-2.36.42-2.15-.81,16.84-17.3,61.11-45.92,51.92-76.89-3.11-10.47-16.47-17.99-25.36-21.2-3.36-1.21-14.55-4.73-17.24-4.73h-22.21Z" />
    <path d="M362.58,650.37c-6.72,7.79-15.11,13.16-21.53,21.46-42.13,54.46,56.67,52.16,82.5,50.32,10.22-.73,20.4-4.82,30.75-4.06-1.51,2.49-3.94,2.11-6.17,2.71-11.19,2.99-26.29,5.94-37.72,7.46-22.58,3-73.31,6.7-92.19-7.04-32.15-23.38,23.72-66.36,44.37-70.85Z" />
    <g>
      <path d="M685.39,511.27c47.2,20.58,99.57,29.3,146.56,49.79,5.83,2.54,12.87,4.32,16.3,10.72,1.9,8.23-24.95,18.06-31.01,20.79-41.84,18.84-85.78,31.84-127.52,51.04-7.1,3.54-4.6,21.63-10.44,25.05-28.62,4.93-58.86,21.45-87.04,25.91-3.38.54-6.85.81-10.24.24l-13.92-52.6c-36.87-14.87-73.22-31.39-110.14-46.12-10.59-4.22-22.26-6.6-32.67-11.48-7.29-3.41-17.51-6.4-13.26-17.19,46.46-19.24,95.21-32.79,142.28-50.55,4.37-1.65,14.81-4.46,17.59-7.53,3.24-3.58,5.88-15.1,7.49-20.36,15.75-51.37,26.46-106.05,41.56-157.81,10.6-24.43,21.25,18.98,24.04,28.21,15.1,49.98,22.94,102.77,40.43,151.88Z" />
      <path d="M680.73,717.32l-39.02,131.13c-2.63,4.67-6.07,9.13-11.55,7.28l-4.59-6.12-29.39-108.37,84.55-23.92Z" />
    </g>
  </g>
  <path d="M889.96,304.46c-.55,8.7,1.92,13.95,8.13,18.86,1.62,1.28,13.11,5.41,10.51,8.23-14.76.54-13.38,10.25-18.29,20.3-.91,1.87.04,2.67-3.19,2.03-.4-6.31-3.25-13.79-7.32-18.18-1.67-1.81-10.42-5.88-8.46-8.9,6.05-1.43,10.97-4.9,13.62-11.16,1.7-4.02.81-12.11,5-11.18Z" />
  <path d="M258.41,602.05c2.55,3.11,7.43,3.6,10.43,5.12,1.69.85,2.6-.76,2.02,3.33-5.17-1.5-11.2,3.17-13.52,8.09-1.85,3.93-.88,10.62-5.1,12.64.15-6.48-2.53-14.39-7.57-17.89-2.87-1.99-9.2-1.07-8.21-6,10.41-.8,14.66-8.25,15.78-19.14,4.22,2.71,2.97,9.96,6.16,13.85Z" />
  <path d="M478.66,777.87c-.85,9.86,6.32,14.2,12.9,18.33-2.38,2.97-6.2,3.45-8.63,6.34-3.09,3.67-3.56,10.67-7.11,13.58-.59-9.38-6.79-16.65-14.34-19.91,2.34-3.42,7.48-3.88,9.97-6.45,3.78-3.91,2.09-12.31,7.21-11.9Z" />
</svg>